<?xml version="1.0" encoding="UTF-8" standalone="no"?>
<!DOCTYPE svg PUBLIC "-//W3C//DTD SVG 1.1//EN"
 "http://www.w3.org/Graphics/SVG/1.1/DTD/svg11.dtd">
<!-- Generated by graphviz version 2.40.1 (20161225.0304)
 -->
<!-- Title: dependencies Pages: 1 -->
<svg width="868pt" height="211pt"
 viewBox="0.00 0.00 868.00 211.00" xmlns="http://www.w3.org/2000/svg" xmlns:xlink="http://www.w3.org/1999/xlink">
<g id="graph0" class="graph" transform="scale(1 1) rotate(0) translate(4 207)">
<title>dependencies</title>
<polygon fill="#ffffff" stroke="transparent" points="-4,4 -4,-207 864,-207 864,4 -4,4"/>
<text text-anchor="start" x="409.0091" y="-42.4" font-family="sans-serif" font-weight="bold" font-size="14.00" fill="#000000">Legend</text>
<polygon fill="#ffffb3" stroke="transparent" points="196,-10 196,-30 216,-30 216,-10 196,-10"/>
<text text-anchor="start" x="219.629" y="-15.4" font-family="sans-serif" font-size="14.00" fill="#000000"> &#160;Declarations</text>
<polygon fill="#8dd3c7" stroke="transparent" points="309,-10 309,-30 329,-30 329,-10 309,-10"/>
<text text-anchor="start" x="332.7251" y="-15.4" font-family="sans-serif" font-size="14.00" fill="#000000"> &#160;Module</text>
<polygon fill="#80b1d3" stroke="transparent" points="395,-10 395,-30 415,-30 415,-10 395,-10"/>
<text text-anchor="start" x="418.7812" y="-15.4" font-family="sans-serif" font-size="14.00" fill="#000000"> &#160;Bootstrap</text>
<polygon fill="#fdb462" stroke="transparent" points="492,-10 492,-30 512,-30 512,-10 492,-10"/>
<text text-anchor="start" x="515.6732" y="-15.4" font-family="sans-serif" font-size="14.00" fill="#000000"> &#160;Providers</text>
<polygon fill="#fb8072" stroke="transparent" points="588,-10 588,-30 608,-30 608,-10 588,-10"/>
<text text-anchor="start" x="611.7258" y="-15.4" font-family="sans-serif" font-size="14.00" fill="#000000"> &#160;Exports</text>
<g id="clust1" class="cluster">
<title>cluster_BiometricsModule</title>
<polygon fill="none" stroke="#000000" stroke-dasharray="1,5" points="8,-70 8,-195 852,-195 852,-70 8,-70"/>
</g>
<g id="clust2" class="cluster">
<title>cluster_BiometricsModule_declarations</title>
<polygon fill="none" stroke="#000000" points="278,-78 278,-130 844,-130 844,-78 278,-78"/>
</g>
<g id="clust6" class="cluster">
<title>cluster_BiometricsModule_imports</title>
<polygon fill="none" stroke="#000000" points="16,-78 16,-130 270,-130 270,-78 16,-78"/>
</g>
<!-- BiometricHomeComponent -->
<g id="node1" class="node">
<title>BiometricHomeComponent</title>
<polygon fill="#ffffb3" stroke="#000000" points="835.5336,-122 664.4664,-122 664.4664,-86 835.5336,-86 835.5336,-122"/>
<text text-anchor="middle" x="750" y="-99.8" font-family="Times,serif" font-size="14.00" fill="#000000">BiometricHomeComponent</text>
</g>
<!-- BiometricsModule -->
<g id="node4" class="node">
<title>BiometricsModule</title>
<polygon fill="#8dd3c7" stroke="#000000" points="434.4832,-187 431.4832,-191 410.4832,-191 407.4832,-187 313.5168,-187 313.5168,-151 434.4832,-151 434.4832,-187"/>
<text text-anchor="middle" x="374" y="-164.8" font-family="Times,serif" font-size="14.00" fill="#000000">BiometricsModule</text>
</g>
<!-- BiometricHomeComponent&#45;&gt;BiometricsModule -->
<g id="edge1" class="edge">
<title>BiometricHomeComponent&#45;&gt;BiometricsModule</title>
<path fill="none" stroke="#000000" d="M750,-122.2843C750,-143.3211 750,-175 750,-175 750,-175 444.8288,-175 444.8288,-175"/>
<polygon fill="#000000" stroke="#000000" points="444.8288,-171.5001 434.8288,-175 444.8288,-178.5001 444.8288,-171.5001"/>
</g>
<!-- BiometricMainComponent -->
<g id="node2" class="node">
<title>BiometricMainComponent</title>
<polygon fill="#ffffb3" stroke="#000000" points="646.371,-122 479.629,-122 479.629,-86 646.371,-86 646.371,-122"/>
<text text-anchor="middle" x="563" y="-99.8" font-family="Times,serif" font-size="14.00" fill="#000000">BiometricMainComponent</text>
</g>
<!-- BiometricMainComponent&#45;&gt;BiometricsModule -->
<g id="edge2" class="edge">
<title>BiometricMainComponent&#45;&gt;BiometricsModule</title>
<path fill="none" stroke="#000000" d="M563,-122.0225C563,-139.3734 563,-163 563,-163 563,-163 444.5806,-163 444.5806,-163"/>
<polygon fill="#000000" stroke="#000000" points="444.5807,-159.5001 434.5806,-163 444.5806,-166.5001 444.5807,-159.5001"/>
</g>
<!-- BiometricSearchComponent -->
<g id="node3" class="node">
<title>BiometricSearchComponent</title>
<polygon fill="#ffffb3" stroke="#000000" points="461.9087,-122 286.0913,-122 286.0913,-86 461.9087,-86 461.9087,-122"/>
<text text-anchor="middle" x="374" y="-99.8" font-family="Times,serif" font-size="14.00" fill="#000000">BiometricSearchComponent</text>
</g>
<!-- BiometricSearchComponent&#45;&gt;BiometricsModule -->
<g id="edge3" class="edge">
<title>BiometricSearchComponent&#45;&gt;BiometricsModule</title>
<path fill="none" stroke="#000000" d="M374,-122.1061C374,-122.1061 374,-140.991 374,-140.991"/>
<polygon fill="#000000" stroke="#000000" points="370.5001,-140.9909 374,-150.991 377.5001,-140.991 370.5001,-140.9909"/>
</g>
<!-- BiometricsRouting -->
<g id="node5" class="node">
<title>BiometricsRouting</title>
<polygon fill="#8dd3c7" stroke="#000000" points="262.052,-122 259.052,-126 238.052,-126 235.052,-122 139.948,-122 139.948,-86 262.052,-86 262.052,-122"/>
<text text-anchor="middle" x="201" y="-99.8" font-family="Times,serif" font-size="14.00" fill="#000000">BiometricsRouting</text>
</g>
<!-- BiometricsRouting&#45;&gt;BiometricsModule -->
<g id="edge4" class="edge">
<title>BiometricsRouting&#45;&gt;BiometricsModule</title>
<path fill="none" stroke="#000000" d="M201,-122.0225C201,-139.3734 201,-163 201,-163 201,-163 303.493,-163 303.493,-163"/>
<polygon fill="#000000" stroke="#000000" points="303.493,-166.5001 313.493,-163 303.493,-159.5001 303.493,-166.5001"/>
</g>
<!-- SharedModule -->
<g id="node6" class="node">
<title>SharedModule</title>
<polygon fill="#8dd3c7" stroke="#000000" points="122.4231,-122 119.4231,-126 98.4231,-126 95.4231,-122 23.5769,-122 23.5769,-86 122.4231,-86 122.4231,-122"/>
<text text-anchor="middle" x="73" y="-99.8" font-family="Times,serif" font-size="14.00" fill="#000000">SharedModule</text>
</g>
<!-- SharedModule&#45;&gt;BiometricsModule -->
<g id="edge5" class="edge">
<title>SharedModule&#45;&gt;BiometricsModule</title>
<path fill="none" stroke="#000000" d="M73,-122.2843C73,-143.3211 73,-175 73,-175 73,-175 303.4502,-175 303.4502,-175"/>
<polygon fill="#000000" stroke="#000000" points="303.4503,-178.5001 313.4502,-175 303.4502,-171.5001 303.4503,-178.5001"/>
</g>
</g>
</svg>
