<?xml version="1.0" encoding="UTF-8" standalone="no"?>
<!DOCTYPE svg PUBLIC "-//W3C//DTD SVG 1.1//EN"
 "http://www.w3.org/Graphics/SVG/1.1/DTD/svg11.dtd">
<!-- Generated by graphviz version 2.40.1 (20161225.0304)
 -->
<!-- Title: dependencies Pages: 1 -->
<svg width="1045pt" height="211pt"
 viewBox="0.00 0.00 1045.00 211.00" xmlns="http://www.w3.org/2000/svg" xmlns:xlink="http://www.w3.org/1999/xlink">
<g id="graph0" class="graph" transform="scale(1 1) rotate(0) translate(4 207)">
<title>dependencies</title>
<polygon fill="#ffffff" stroke="transparent" points="-4,4 -4,-207 1041,-207 1041,4 -4,4"/>
<text text-anchor="start" x="497.5091" y="-42.4" font-family="sans-serif" font-weight="bold" font-size="14.00" fill="#000000">Legend</text>
<polygon fill="#ffffb3" stroke="transparent" points="284.5,-10 284.5,-30 304.5,-30 304.5,-10 284.5,-10"/>
<text text-anchor="start" x="308.129" y="-15.4" font-family="sans-serif" font-size="14.00" fill="#000000"> &#160;Declarations</text>
<polygon fill="#8dd3c7" stroke="transparent" points="397.5,-10 397.5,-30 417.5,-30 417.5,-10 397.5,-10"/>
<text text-anchor="start" x="421.2251" y="-15.4" font-family="sans-serif" font-size="14.00" fill="#000000"> &#160;Module</text>
<polygon fill="#80b1d3" stroke="transparent" points="483.5,-10 483.5,-30 503.5,-30 503.5,-10 483.5,-10"/>
<text text-anchor="start" x="507.2812" y="-15.4" font-family="sans-serif" font-size="14.00" fill="#000000"> &#160;Bootstrap</text>
<polygon fill="#fdb462" stroke="transparent" points="580.5,-10 580.5,-30 600.5,-30 600.5,-10 580.5,-10"/>
<text text-anchor="start" x="604.1732" y="-15.4" font-family="sans-serif" font-size="14.00" fill="#000000"> &#160;Providers</text>
<polygon fill="#fb8072" stroke="transparent" points="676.5,-10 676.5,-30 696.5,-30 696.5,-10 676.5,-10"/>
<text text-anchor="start" x="700.2258" y="-15.4" font-family="sans-serif" font-size="14.00" fill="#000000"> &#160;Exports</text>
<g id="clust1" class="cluster">
<title>cluster_BiometricsModule</title>
<polygon fill="none" stroke="#000000" stroke-dasharray="1,5" points="8,-70 8,-195 1029,-195 1029,-70 8,-70"/>
</g>
<g id="clust2" class="cluster">
<title>cluster_BiometricsModule_declarations</title>
<polygon fill="none" stroke="#000000" points="278,-78 278,-130 1021,-130 1021,-78 278,-78"/>
</g>
<g id="clust7" class="cluster">
<title>cluster_BiometricsModule_imports</title>
<polygon fill="none" stroke="#000000" points="16,-78 16,-130 270,-130 270,-78 16,-78"/>
</g>
<!-- BiometricHomeComponent -->
<g id="node1" class="node">
<title>BiometricHomeComponent</title>
<polygon fill="#ffffb3" stroke="#000000" points="1012.5336,-122 841.4664,-122 841.4664,-86 1012.5336,-86 1012.5336,-122"/>
<text text-anchor="middle" x="927" y="-99.8" font-family="Times,serif" font-size="14.00" fill="#000000">BiometricHomeComponent</text>
</g>
<!-- BiometricsModule -->
<g id="node5" class="node">
<title>BiometricsModule</title>
<polygon fill="#8dd3c7" stroke="#000000" points="518.4832,-187 515.4832,-191 494.4832,-191 491.4832,-187 397.5168,-187 397.5168,-151 518.4832,-151 518.4832,-187"/>
<text text-anchor="middle" x="458" y="-164.8" font-family="Times,serif" font-size="14.00" fill="#000000">BiometricsModule</text>
</g>
<!-- BiometricHomeComponent&#45;&gt;BiometricsModule -->
<g id="edge1" class="edge">
<title>BiometricHomeComponent&#45;&gt;BiometricsModule</title>
<path fill="none" stroke="#000000" d="M927,-122.2843C927,-143.3211 927,-175 927,-175 927,-175 528.8327,-175 528.8327,-175"/>
<polygon fill="#000000" stroke="#000000" points="528.8328,-171.5001 518.8327,-175 528.8327,-178.5001 528.8328,-171.5001"/>
</g>
<!-- BiometricMainComponent -->
<g id="node2" class="node">
<title>BiometricMainComponent</title>
<polygon fill="#ffffb3" stroke="#000000" points="823.371,-122 656.629,-122 656.629,-86 823.371,-86 823.371,-122"/>
<text text-anchor="middle" x="740" y="-99.8" font-family="Times,serif" font-size="14.00" fill="#000000">BiometricMainComponent</text>
</g>
<!-- BiometricMainComponent&#45;&gt;BiometricsModule -->
<g id="edge2" class="edge">
<title>BiometricMainComponent&#45;&gt;BiometricsModule</title>
<path fill="none" stroke="#000000" d="M740,-122.0225C740,-139.3734 740,-163 740,-163 740,-163 528.4961,-163 528.4961,-163"/>
<polygon fill="#000000" stroke="#000000" points="528.4961,-159.5001 518.4961,-163 528.496,-166.5001 528.4961,-159.5001"/>
</g>
<!-- BiometricSearchComponent -->
<g id="node3" class="node">
<title>BiometricSearchComponent</title>
<polygon fill="#ffffb3" stroke="#000000" points="638.9087,-122 463.0913,-122 463.0913,-86 638.9087,-86 638.9087,-122"/>
<text text-anchor="middle" x="551" y="-99.8" font-family="Times,serif" font-size="14.00" fill="#000000">BiometricSearchComponent</text>
</g>
<!-- BiometricSearchComponent&#45;&gt;BiometricsModule -->
<g id="edge3" class="edge">
<title>BiometricSearchComponent&#45;&gt;BiometricsModule</title>
<path fill="none" stroke="#000000" d="M490.8938,-122.1061C490.8938,-122.1061 490.8938,-140.991 490.8938,-140.991"/>
<polygon fill="#000000" stroke="#000000" points="487.3938,-140.9909 490.8938,-150.991 494.3938,-140.991 487.3938,-140.9909"/>
</g>
<!-- BiometricFileComponent -->
<g id="node4" class="node">
<title>BiometricFileComponent</title>
<polygon fill="#ffffb3" stroke="#000000" points="445.5996,-122 286.4004,-122 286.4004,-86 445.5996,-86 445.5996,-122"/>
<text text-anchor="middle" x="366" y="-99.8" font-family="Times,serif" font-size="14.00" fill="#000000">BiometricFileComponent</text>
</g>
<!-- BiometricFileComponent&#45;&gt;BiometricsModule -->
<g id="edge4" class="edge">
<title>BiometricFileComponent&#45;&gt;BiometricsModule</title>
<path fill="none" stroke="#000000" d="M421.5291,-122.1061C421.5291,-122.1061 421.5291,-140.991 421.5291,-140.991"/>
<polygon fill="#000000" stroke="#000000" points="418.0292,-140.9909 421.5291,-150.991 425.0292,-140.991 418.0292,-140.9909"/>
</g>
<!-- BiometricsRouting -->
<g id="node6" class="node">
<title>BiometricsRouting</title>
<polygon fill="#8dd3c7" stroke="#000000" points="262.052,-122 259.052,-126 238.052,-126 235.052,-122 139.948,-122 139.948,-86 262.052,-86 262.052,-122"/>
<text text-anchor="middle" x="201" y="-99.8" font-family="Times,serif" font-size="14.00" fill="#000000">BiometricsRouting</text>
</g>
<!-- BiometricsRouting&#45;&gt;BiometricsModule -->
<g id="edge5" class="edge">
<title>BiometricsRouting&#45;&gt;BiometricsModule</title>
<path fill="none" stroke="#000000" d="M201,-122.0225C201,-139.3734 201,-163 201,-163 201,-163 387.42,-163 387.42,-163"/>
<polygon fill="#000000" stroke="#000000" points="387.4201,-166.5001 397.42,-163 387.42,-159.5001 387.4201,-166.5001"/>
</g>
<!-- SharedModule -->
<g id="node7" class="node">
<title>SharedModule</title>
<polygon fill="#8dd3c7" stroke="#000000" points="122.4231,-122 119.4231,-126 98.4231,-126 95.4231,-122 23.5769,-122 23.5769,-86 122.4231,-86 122.4231,-122"/>
<text text-anchor="middle" x="73" y="-99.8" font-family="Times,serif" font-size="14.00" fill="#000000">SharedModule</text>
</g>
<!-- SharedModule&#45;&gt;BiometricsModule -->
<g id="edge6" class="edge">
<title>SharedModule&#45;&gt;BiometricsModule</title>
<path fill="none" stroke="#000000" d="M73,-122.2843C73,-143.3211 73,-175 73,-175 73,-175 387.4202,-175 387.4202,-175"/>
<polygon fill="#000000" stroke="#000000" points="387.4203,-178.5001 397.4202,-175 387.4202,-171.5001 387.4203,-178.5001"/>
</g>
</g>
</svg>
