<?xml version="1.0" encoding="UTF-8" standalone="no"?>
<!DOCTYPE svg PUBLIC "-//W3C//DTD SVG 1.1//EN"
 "http://www.w3.org/Graphics/SVG/1.1/DTD/svg11.dtd">
<!-- Generated by graphviz version 2.40.1 (20161225.0304)
 -->
<!-- Title: dependencies Pages: 1 -->
<svg width="937pt" height="284pt"
 viewBox="0.00 0.00 937.00 284.00" xmlns="http://www.w3.org/2000/svg" xmlns:xlink="http://www.w3.org/1999/xlink">
<g id="graph0" class="graph" transform="scale(1 1) rotate(0) translate(4 280)">
<title>dependencies</title>
<polygon fill="#ffffff" stroke="transparent" points="-4,4 -4,-280 933,-280 933,4 -4,4"/>
<text text-anchor="start" x="443.5091" y="-42.4" font-family="sans-serif" font-weight="bold" font-size="14.00" fill="#000000">Legend</text>
<polygon fill="#ffffb3" stroke="transparent" points="230.5,-10 230.5,-30 250.5,-30 250.5,-10 230.5,-10"/>
<text text-anchor="start" x="254.129" y="-15.4" font-family="sans-serif" font-size="14.00" fill="#000000"> &#160;Declarations</text>
<polygon fill="#8dd3c7" stroke="transparent" points="343.5,-10 343.5,-30 363.5,-30 363.5,-10 343.5,-10"/>
<text text-anchor="start" x="367.2251" y="-15.4" font-family="sans-serif" font-size="14.00" fill="#000000"> &#160;Module</text>
<polygon fill="#80b1d3" stroke="transparent" points="429.5,-10 429.5,-30 449.5,-30 449.5,-10 429.5,-10"/>
<text text-anchor="start" x="453.2812" y="-15.4" font-family="sans-serif" font-size="14.00" fill="#000000"> &#160;Bootstrap</text>
<polygon fill="#fdb462" stroke="transparent" points="526.5,-10 526.5,-30 546.5,-30 546.5,-10 526.5,-10"/>
<text text-anchor="start" x="550.1732" y="-15.4" font-family="sans-serif" font-size="14.00" fill="#000000"> &#160;Providers</text>
<polygon fill="#fb8072" stroke="transparent" points="622.5,-10 622.5,-30 642.5,-30 642.5,-10 622.5,-10"/>
<text text-anchor="start" x="646.2258" y="-15.4" font-family="sans-serif" font-size="14.00" fill="#000000"> &#160;Exports</text>
<g id="clust1" class="cluster">
<title>cluster_AppModule</title>
<polygon fill="none" stroke="#000000" stroke-dasharray="1,5" points="8,-70 8,-268 921,-268 921,-70 8,-70"/>
</g>
<g id="clust2" class="cluster">
<title>cluster_AppModule_declarations</title>
<polygon fill="none" stroke="#000000" points="502,-78 502,-130 913,-130 913,-78 502,-78"/>
</g>
<g id="clust6" class="cluster">
<title>cluster_AppModule_imports</title>
<polygon fill="none" stroke="#000000" points="16,-78 16,-130 494,-130 494,-78 16,-78"/>
</g>
<g id="clust8" class="cluster">
<title>cluster_AppModule_bootstrap</title>
<polygon fill="none" stroke="#000000" points="375,-208 375,-260 499,-260 499,-208 375,-208"/>
</g>
<!-- AppComponent -->
<g id="node1" class="node">
<title>AppComponent</title>
<polygon fill="#ffffb3" stroke="#000000" points="904.9399,-122 799.0601,-122 799.0601,-86 904.9399,-86 904.9399,-122"/>
<text text-anchor="middle" x="852" y="-99.8" font-family="Times,serif" font-size="14.00" fill="#000000">AppComponent</text>
</g>
<!-- AppModule -->
<g id="node4" class="node">
<title>AppModule</title>
<polygon fill="#8dd3c7" stroke="#000000" points="478.6571,-187 475.6571,-191 454.6571,-191 451.6571,-187 395.3429,-187 395.3429,-151 478.6571,-151 478.6571,-187"/>
<text text-anchor="middle" x="437" y="-164.8" font-family="Times,serif" font-size="14.00" fill="#000000">AppModule</text>
</g>
<!-- AppComponent&#45;&gt;AppModule -->
<g id="edge1" class="edge">
<title>AppComponent&#45;&gt;AppModule</title>
<path fill="none" stroke="#000000" d="M852,-122.2921C852,-144.2057 852,-178 852,-178 852,-178 488.6919,-178 488.6919,-178"/>
<polygon fill="#000000" stroke="#000000" points="488.6919,-174.5001 478.6919,-178 488.6919,-181.5001 488.6919,-174.5001"/>
</g>
<!-- HomeComponent -->
<g id="node2" class="node">
<title>HomeComponent</title>
<polygon fill="#ffffb3" stroke="#000000" points="781.5451,-122 666.4549,-122 666.4549,-86 781.5451,-86 781.5451,-122"/>
<text text-anchor="middle" x="724" y="-99.8" font-family="Times,serif" font-size="14.00" fill="#000000">HomeComponent</text>
</g>
<!-- HomeComponent&#45;&gt;AppModule -->
<g id="edge2" class="edge">
<title>HomeComponent&#45;&gt;AppModule</title>
<path fill="none" stroke="#000000" d="M724,-122.1061C724,-141.3391 724,-169 724,-169 724,-169 488.7323,-169 488.7323,-169"/>
<polygon fill="#000000" stroke="#000000" points="488.7323,-165.5001 478.7323,-169 488.7322,-172.5001 488.7323,-165.5001"/>
</g>
<!-- ForbiddenComponent -->
<g id="node3" class="node">
<title>ForbiddenComponent</title>
<polygon fill="#ffffb3" stroke="#000000" points="648.3809,-122 509.6191,-122 509.6191,-86 648.3809,-86 648.3809,-122"/>
<text text-anchor="middle" x="579" y="-99.8" font-family="Times,serif" font-size="14.00" fill="#000000">ForbiddenComponent</text>
</g>
<!-- ForbiddenComponent&#45;&gt;AppModule -->
<g id="edge3" class="edge">
<title>ForbiddenComponent&#45;&gt;AppModule</title>
<path fill="none" stroke="#000000" d="M579,-122.027C579,-138.3976 579,-160 579,-160 579,-160 488.8367,-160 488.8367,-160"/>
<polygon fill="#000000" stroke="#000000" points="488.8367,-156.5001 478.8367,-160 488.8366,-163.5001 488.8367,-156.5001"/>
</g>
<!-- AppComponent  -->
<g id="node9" class="node">
<title>AppComponent </title>
<polygon fill="#80b1d3" stroke="#000000" points="491.439,-252 382.561,-252 382.561,-216 491.439,-216 491.439,-252"/>
<text text-anchor="middle" x="437" y="-229.8" font-family="Times,serif" font-size="14.00" fill="#000000">AppComponent </text>
</g>
<!-- AppModule&#45;&gt;AppComponent  -->
<g id="edge8" class="edge">
<title>AppModule&#45;&gt;AppComponent </title>
<path fill="none" stroke="#000000" stroke-dasharray="1,5" d="M437,-187.1061C437,-187.1061 437,-205.991 437,-205.991"/>
<polygon fill="#000000" stroke="#000000" points="433.5001,-205.9909 437,-215.991 440.5001,-205.991 433.5001,-205.9909"/>
</g>
<!-- SharedModule -->
<g id="node5" class="node">
<title>SharedModule</title>
<polygon fill="#8dd3c7" stroke="#000000" points="486.4231,-122 483.4231,-126 462.4231,-126 459.4231,-122 387.5769,-122 387.5769,-86 486.4231,-86 486.4231,-122"/>
<text text-anchor="middle" x="437" y="-99.8" font-family="Times,serif" font-size="14.00" fill="#000000">SharedModule</text>
</g>
<!-- SharedModule&#45;&gt;AppModule -->
<g id="edge4" class="edge">
<title>SharedModule&#45;&gt;AppModule</title>
<path fill="none" stroke="#000000" d="M437,-122.1061C437,-122.1061 437,-140.991 437,-140.991"/>
<polygon fill="#000000" stroke="#000000" points="433.5001,-140.9909 437,-150.991 440.5001,-140.991 433.5001,-140.9909"/>
</g>
<!-- BiometricsModule -->
<g id="node6" class="node">
<title>BiometricsModule</title>
<polygon fill="#8dd3c7" stroke="#000000" points="369.4832,-122 366.4832,-126 345.4832,-126 342.4832,-122 248.5168,-122 248.5168,-86 369.4832,-86 369.4832,-122"/>
<text text-anchor="middle" x="309" y="-99.8" font-family="Times,serif" font-size="14.00" fill="#000000">BiometricsModule</text>
</g>
<!-- BiometricsModule&#45;&gt;AppModule -->
<g id="edge5" class="edge">
<title>BiometricsModule&#45;&gt;AppModule</title>
<path fill="none" stroke="#000000" d="M309,-122.027C309,-138.3976 309,-160 309,-160 309,-160 385.088,-160 385.088,-160"/>
<polygon fill="#000000" stroke="#000000" points="385.088,-163.5001 395.088,-160 385.088,-156.5001 385.088,-163.5001"/>
</g>
<!-- ReportsModule -->
<g id="node7" class="node">
<title>ReportsModule</title>
<polygon fill="#8dd3c7" stroke="#000000" points="230.5968,-122 227.5968,-126 206.5968,-126 203.5968,-122 127.4032,-122 127.4032,-86 230.5968,-86 230.5968,-122"/>
<text text-anchor="middle" x="179" y="-99.8" font-family="Times,serif" font-size="14.00" fill="#000000">ReportsModule</text>
</g>
<!-- ReportsModule&#45;&gt;AppModule -->
<g id="edge6" class="edge">
<title>ReportsModule&#45;&gt;AppModule</title>
<path fill="none" stroke="#000000" d="M179,-122.1061C179,-141.3391 179,-169 179,-169 179,-169 385.2611,-169 385.2611,-169"/>
<polygon fill="#000000" stroke="#000000" points="385.2611,-172.5001 395.2611,-169 385.2611,-165.5001 385.2611,-172.5001"/>
</g>
<!-- AppRouting -->
<g id="node8" class="node">
<title>AppRouting</title>
<polygon fill="#8dd3c7" stroke="#000000" points="109.7247,-122 106.7247,-126 85.7247,-126 82.7247,-122 24.2753,-122 24.2753,-86 109.7247,-86 109.7247,-122"/>
<text text-anchor="middle" x="67" y="-99.8" font-family="Times,serif" font-size="14.00" fill="#000000">AppRouting</text>
</g>
<!-- AppRouting&#45;&gt;AppModule -->
<g id="edge7" class="edge">
<title>AppRouting&#45;&gt;AppModule</title>
<path fill="none" stroke="#000000" d="M67,-122.2921C67,-144.2057 67,-178 67,-178 67,-178 385.2755,-178 385.2755,-178"/>
<polygon fill="#000000" stroke="#000000" points="385.2756,-181.5001 395.2755,-178 385.2755,-174.5001 385.2756,-181.5001"/>
</g>
</g>
</svg>
