<?xml version="1.0" encoding="UTF-8" standalone="no"?>
<!DOCTYPE svg PUBLIC "-//W3C//DTD SVG 1.1//EN"
 "http://www.w3.org/Graphics/SVG/1.1/DTD/svg11.dtd">
<!-- Generated by graphviz version 2.40.1 (20161225.0304)
 -->
<!-- Title: dependencies Pages: 1 -->
<svg width="781pt" height="284pt"
 viewBox="0.00 0.00 781.00 284.00" xmlns="http://www.w3.org/2000/svg" xmlns:xlink="http://www.w3.org/1999/xlink">
<g id="graph0" class="graph" transform="scale(1 1) rotate(0) translate(4 280)">
<title>dependencies</title>
<polygon fill="#ffffff" stroke="transparent" points="-4,4 -4,-280 777,-280 777,4 -4,4"/>
<text text-anchor="start" x="365.5091" y="-42.4" font-family="sans-serif" font-weight="bold" font-size="14.00" fill="#000000">Legend</text>
<polygon fill="#ffffb3" stroke="transparent" points="152.5,-10 152.5,-30 172.5,-30 172.5,-10 152.5,-10"/>
<text text-anchor="start" x="176.129" y="-15.4" font-family="sans-serif" font-size="14.00" fill="#000000"> &#160;Declarations</text>
<polygon fill="#8dd3c7" stroke="transparent" points="265.5,-10 265.5,-30 285.5,-30 285.5,-10 265.5,-10"/>
<text text-anchor="start" x="289.2251" y="-15.4" font-family="sans-serif" font-size="14.00" fill="#000000"> &#160;Module</text>
<polygon fill="#80b1d3" stroke="transparent" points="351.5,-10 351.5,-30 371.5,-30 371.5,-10 351.5,-10"/>
<text text-anchor="start" x="375.2812" y="-15.4" font-family="sans-serif" font-size="14.00" fill="#000000"> &#160;Bootstrap</text>
<polygon fill="#fdb462" stroke="transparent" points="448.5,-10 448.5,-30 468.5,-30 468.5,-10 448.5,-10"/>
<text text-anchor="start" x="472.1732" y="-15.4" font-family="sans-serif" font-size="14.00" fill="#000000"> &#160;Providers</text>
<polygon fill="#fb8072" stroke="transparent" points="544.5,-10 544.5,-30 564.5,-30 564.5,-10 544.5,-10"/>
<text text-anchor="start" x="568.2258" y="-15.4" font-family="sans-serif" font-size="14.00" fill="#000000"> &#160;Exports</text>
<g id="clust1" class="cluster">
<title>cluster_AppModule</title>
<polygon fill="none" stroke="#000000" stroke-dasharray="1,5" points="8,-70 8,-268 765,-268 765,-70 8,-70"/>
</g>
<g id="clust2" class="cluster">
<title>cluster_AppModule_declarations</title>
<polygon fill="none" stroke="#000000" points="502,-78 502,-130 757,-130 757,-78 502,-78"/>
</g>
<g id="clust5" class="cluster">
<title>cluster_AppModule_imports</title>
<polygon fill="none" stroke="#000000" points="16,-78 16,-130 494,-130 494,-78 16,-78"/>
</g>
<g id="clust7" class="cluster">
<title>cluster_AppModule_bootstrap</title>
<polygon fill="none" stroke="#000000" points="311,-208 311,-260 435,-260 435,-208 311,-208"/>
</g>
<!-- AppComponent -->
<g id="node1" class="node">
<title>AppComponent</title>
<polygon fill="#ffffb3" stroke="#000000" points="748.9399,-122 643.0601,-122 643.0601,-86 748.9399,-86 748.9399,-122"/>
<text text-anchor="middle" x="696" y="-99.8" font-family="Times,serif" font-size="14.00" fill="#000000">AppComponent</text>
</g>
<!-- AppModule -->
<g id="node3" class="node">
<title>AppModule</title>
<polygon fill="#8dd3c7" stroke="#000000" points="414.6571,-187 411.6571,-191 390.6571,-191 387.6571,-187 331.3429,-187 331.3429,-151 414.6571,-151 414.6571,-187"/>
<text text-anchor="middle" x="373" y="-164.8" font-family="Times,serif" font-size="14.00" fill="#000000">AppModule</text>
</g>
<!-- AppComponent&#45;&gt;AppModule -->
<g id="edge1" class="edge">
<title>AppComponent&#45;&gt;AppModule</title>
<path fill="none" stroke="#000000" d="M696,-122.2843C696,-143.3211 696,-175 696,-175 696,-175 424.8955,-175 424.8955,-175"/>
<polygon fill="#000000" stroke="#000000" points="424.8955,-171.5001 414.8955,-175 424.8954,-178.5001 424.8955,-171.5001"/>
</g>
<!-- HomeComponent -->
<g id="node2" class="node">
<title>HomeComponent</title>
<polygon fill="#ffffb3" stroke="#000000" points="625.5451,-122 510.4549,-122 510.4549,-86 625.5451,-86 625.5451,-122"/>
<text text-anchor="middle" x="568" y="-99.8" font-family="Times,serif" font-size="14.00" fill="#000000">HomeComponent</text>
</g>
<!-- HomeComponent&#45;&gt;AppModule -->
<g id="edge2" class="edge">
<title>HomeComponent&#45;&gt;AppModule</title>
<path fill="none" stroke="#000000" d="M568,-122.0225C568,-139.3734 568,-163 568,-163 568,-163 424.8324,-163 424.8324,-163"/>
<polygon fill="#000000" stroke="#000000" points="424.8324,-159.5001 414.8324,-163 424.8324,-166.5001 424.8324,-159.5001"/>
</g>
<!-- AppComponent  -->
<g id="node8" class="node">
<title>AppComponent </title>
<polygon fill="#80b1d3" stroke="#000000" points="427.439,-252 318.561,-252 318.561,-216 427.439,-216 427.439,-252"/>
<text text-anchor="middle" x="373" y="-229.8" font-family="Times,serif" font-size="14.00" fill="#000000">AppComponent </text>
</g>
<!-- AppModule&#45;&gt;AppComponent  -->
<g id="edge7" class="edge">
<title>AppModule&#45;&gt;AppComponent </title>
<path fill="none" stroke="#000000" stroke-dasharray="1,5" d="M373,-187.1061C373,-187.1061 373,-205.991 373,-205.991"/>
<polygon fill="#000000" stroke="#000000" points="369.5001,-205.9909 373,-215.991 376.5001,-205.991 369.5001,-205.9909"/>
</g>
<!-- SharedModule -->
<g id="node4" class="node">
<title>SharedModule</title>
<polygon fill="#8dd3c7" stroke="#000000" points="486.4231,-122 483.4231,-126 462.4231,-126 459.4231,-122 387.5769,-122 387.5769,-86 486.4231,-86 486.4231,-122"/>
<text text-anchor="middle" x="437" y="-99.8" font-family="Times,serif" font-size="14.00" fill="#000000">SharedModule</text>
</g>
<!-- SharedModule&#45;&gt;AppModule -->
<g id="edge3" class="edge">
<title>SharedModule&#45;&gt;AppModule</title>
<path fill="none" stroke="#000000" d="M401.3085,-122.1061C401.3085,-122.1061 401.3085,-140.991 401.3085,-140.991"/>
<polygon fill="#000000" stroke="#000000" points="397.8086,-140.9909 401.3085,-150.991 404.8086,-140.991 397.8086,-140.9909"/>
</g>
<!-- BiometricsModule -->
<g id="node5" class="node">
<title>BiometricsModule</title>
<polygon fill="#8dd3c7" stroke="#000000" points="369.4832,-122 366.4832,-126 345.4832,-126 342.4832,-122 248.5168,-122 248.5168,-86 369.4832,-86 369.4832,-122"/>
<text text-anchor="middle" x="309" y="-99.8" font-family="Times,serif" font-size="14.00" fill="#000000">BiometricsModule</text>
</g>
<!-- BiometricsModule&#45;&gt;AppModule -->
<g id="edge4" class="edge">
<title>BiometricsModule&#45;&gt;AppModule</title>
<path fill="none" stroke="#000000" d="M350.3317,-122.1061C350.3317,-122.1061 350.3317,-140.991 350.3317,-140.991"/>
<polygon fill="#000000" stroke="#000000" points="346.8318,-140.9909 350.3317,-150.991 353.8318,-140.991 346.8318,-140.9909"/>
</g>
<!-- ReportsModule -->
<g id="node6" class="node">
<title>ReportsModule</title>
<polygon fill="#8dd3c7" stroke="#000000" points="230.5968,-122 227.5968,-126 206.5968,-126 203.5968,-122 127.4032,-122 127.4032,-86 230.5968,-86 230.5968,-122"/>
<text text-anchor="middle" x="179" y="-99.8" font-family="Times,serif" font-size="14.00" fill="#000000">ReportsModule</text>
</g>
<!-- ReportsModule&#45;&gt;AppModule -->
<g id="edge5" class="edge">
<title>ReportsModule&#45;&gt;AppModule</title>
<path fill="none" stroke="#000000" d="M179,-122.0225C179,-139.3734 179,-163 179,-163 179,-163 320.9049,-163 320.9049,-163"/>
<polygon fill="#000000" stroke="#000000" points="320.9049,-166.5001 330.9049,-163 320.9049,-159.5001 320.9049,-166.5001"/>
</g>
<!-- AppRouting -->
<g id="node7" class="node">
<title>AppRouting</title>
<polygon fill="#8dd3c7" stroke="#000000" points="109.7247,-122 106.7247,-126 85.7247,-126 82.7247,-122 24.2753,-122 24.2753,-86 109.7247,-86 109.7247,-122"/>
<text text-anchor="middle" x="67" y="-99.8" font-family="Times,serif" font-size="14.00" fill="#000000">AppRouting</text>
</g>
<!-- AppRouting&#45;&gt;AppModule -->
<g id="edge6" class="edge">
<title>AppRouting&#45;&gt;AppModule</title>
<path fill="none" stroke="#000000" d="M67,-122.2843C67,-143.3211 67,-175 67,-175 67,-175 321.0936,-175 321.0936,-175"/>
<polygon fill="#000000" stroke="#000000" points="321.0937,-178.5001 331.0936,-175 321.0936,-171.5001 321.0937,-178.5001"/>
</g>
</g>
</svg>
