<?xml version="1.0" encoding="UTF-8" standalone="no"?>
<!DOCTYPE svg PUBLIC "-//W3C//DTD SVG 1.1//EN"
 "http://www.w3.org/Graphics/SVG/1.1/DTD/svg11.dtd">
<!-- Generated by graphviz version 2.40.1 (20161225.0304)
 -->
<!-- Title: dependencies Pages: 1 -->
<svg width="672pt" height="284pt"
 viewBox="0.00 0.00 672.00 284.00" xmlns="http://www.w3.org/2000/svg" xmlns:xlink="http://www.w3.org/1999/xlink">
<g id="graph0" class="graph" transform="scale(1 1) rotate(0) translate(4 280)">
<title>dependencies</title>
<polygon fill="#ffffff" stroke="transparent" points="-4,4 -4,-280 668,-280 668,4 -4,4"/>
<text text-anchor="start" x="311.0091" y="-42.4" font-family="sans-serif" font-weight="bold" font-size="14.00" fill="#000000">Legend</text>
<polygon fill="#ffffb3" stroke="transparent" points="98,-10 98,-30 118,-30 118,-10 98,-10"/>
<text text-anchor="start" x="121.629" y="-15.4" font-family="sans-serif" font-size="14.00" fill="#000000"> &#160;Declarations</text>
<polygon fill="#8dd3c7" stroke="transparent" points="211,-10 211,-30 231,-30 231,-10 211,-10"/>
<text text-anchor="start" x="234.7251" y="-15.4" font-family="sans-serif" font-size="14.00" fill="#000000"> &#160;Module</text>
<polygon fill="#80b1d3" stroke="transparent" points="297,-10 297,-30 317,-30 317,-10 297,-10"/>
<text text-anchor="start" x="320.7812" y="-15.4" font-family="sans-serif" font-size="14.00" fill="#000000"> &#160;Bootstrap</text>
<polygon fill="#fdb462" stroke="transparent" points="394,-10 394,-30 414,-30 414,-10 394,-10"/>
<text text-anchor="start" x="417.6732" y="-15.4" font-family="sans-serif" font-size="14.00" fill="#000000"> &#160;Providers</text>
<polygon fill="#fb8072" stroke="transparent" points="490,-10 490,-30 510,-30 510,-10 490,-10"/>
<text text-anchor="start" x="513.7258" y="-15.4" font-family="sans-serif" font-size="14.00" fill="#000000"> &#160;Exports</text>
<g id="clust1" class="cluster">
<title>cluster_ReportsModule</title>
<polygon fill="none" stroke="#000000" stroke-dasharray="1,5" points="8,-70 8,-268 656,-268 656,-70 8,-70"/>
</g>
<g id="clust2" class="cluster">
<title>cluster_ReportsModule_declarations</title>
<polygon fill="none" stroke="#000000" points="144,-78 144,-130 648,-130 648,-78 144,-78"/>
</g>
<g id="clust6" class="cluster">
<title>cluster_ReportsModule_imports</title>
<polygon fill="none" stroke="#000000" points="16,-78 16,-130 136,-130 136,-78 16,-78"/>
</g>
<g id="clust7" class="cluster">
<title>cluster_ReportsModule_exports</title>
<polygon fill="none" stroke="#000000" points="237,-208 237,-260 395,-260 395,-208 237,-208"/>
</g>
<!-- ChartItemComponent -->
<g id="node1" class="node">
<title>ChartItemComponent</title>
<polygon fill="#ffffb3" stroke="#000000" points="640.0912,-122 501.9088,-122 501.9088,-86 640.0912,-86 640.0912,-122"/>
<text text-anchor="middle" x="571" y="-99.8" font-family="Times,serif" font-size="14.00" fill="#000000">ChartItemComponent</text>
</g>
<!-- ReportsModule -->
<g id="node4" class="node">
<title>ReportsModule</title>
<polygon fill="#8dd3c7" stroke="#000000" points="367.5968,-187 364.5968,-191 343.5968,-191 340.5968,-187 264.4032,-187 264.4032,-151 367.5968,-151 367.5968,-187"/>
<text text-anchor="middle" x="316" y="-164.8" font-family="Times,serif" font-size="14.00" fill="#000000">ReportsModule</text>
</g>
<!-- ChartItemComponent&#45;&gt;ReportsModule -->
<g id="edge1" class="edge">
<title>ChartItemComponent&#45;&gt;ReportsModule</title>
<path fill="none" stroke="#000000" d="M571,-122.1061C571,-141.3391 571,-169 571,-169 571,-169 377.6031,-169 377.6031,-169"/>
<polygon fill="#000000" stroke="#000000" points="377.6031,-165.5001 367.6031,-169 377.603,-172.5001 377.6031,-165.5001"/>
</g>
<!-- HomeReportsComponent -->
<g id="node2" class="node">
<title>HomeReportsComponent</title>
<polygon fill="#ffffb3" stroke="#000000" points="483.5912,-122 324.4088,-122 324.4088,-86 483.5912,-86 483.5912,-122"/>
<text text-anchor="middle" x="404" y="-99.8" font-family="Times,serif" font-size="14.00" fill="#000000">HomeReportsComponent</text>
</g>
<!-- HomeReportsComponent&#45;&gt;ReportsModule -->
<g id="edge2" class="edge">
<title>HomeReportsComponent&#45;&gt;ReportsModule</title>
<path fill="none" stroke="#000000" d="M346.0014,-122.1061C346.0014,-122.1061 346.0014,-140.991 346.0014,-140.991"/>
<polygon fill="#000000" stroke="#000000" points="342.5015,-140.9909 346.0014,-150.991 349.5015,-140.991 342.5015,-140.9909"/>
</g>
<!-- TrackRecordComponent -->
<g id="node3" class="node">
<title>TrackRecordComponent</title>
<polygon fill="#ffffb3" stroke="#000000" points="306.4017,-122 151.5983,-122 151.5983,-86 306.4017,-86 306.4017,-122"/>
<text text-anchor="middle" x="229" y="-99.8" font-family="Times,serif" font-size="14.00" fill="#000000">TrackRecordComponent</text>
</g>
<!-- TrackRecordComponent&#45;&gt;ReportsModule -->
<g id="edge3" class="edge">
<title>TrackRecordComponent&#45;&gt;ReportsModule</title>
<path fill="none" stroke="#000000" d="M285.3261,-122.1061C285.3261,-122.1061 285.3261,-140.991 285.3261,-140.991"/>
<polygon fill="#000000" stroke="#000000" points="281.8262,-140.9909 285.3261,-150.991 288.8262,-140.991 281.8262,-140.9909"/>
</g>
<!-- ChartItemComponent  -->
<g id="node6" class="node">
<title>ChartItemComponent </title>
<polygon fill="#fb8072" stroke="#000000" points="386.5918,-252 245.4082,-252 245.4082,-216 386.5918,-216 386.5918,-252"/>
<text text-anchor="middle" x="316" y="-229.8" font-family="Times,serif" font-size="14.00" fill="#000000">ChartItemComponent </text>
</g>
<!-- ReportsModule&#45;&gt;ChartItemComponent  -->
<g id="edge5" class="edge">
<title>ReportsModule&#45;&gt;ChartItemComponent </title>
<path fill="none" stroke="#000000" stroke-dasharray="5,2" d="M316,-187.1061C316,-187.1061 316,-205.991 316,-205.991"/>
<polygon fill="#000000" stroke="#000000" points="312.5001,-205.9909 316,-215.991 319.5001,-205.991 312.5001,-205.9909"/>
</g>
<!-- ReportsRouting -->
<g id="node5" class="node">
<title>ReportsRouting</title>
<polygon fill="#8dd3c7" stroke="#000000" points="128.1653,-122 125.1653,-126 104.1653,-126 101.1653,-122 23.8347,-122 23.8347,-86 128.1653,-86 128.1653,-122"/>
<text text-anchor="middle" x="76" y="-99.8" font-family="Times,serif" font-size="14.00" fill="#000000">ReportsRouting</text>
</g>
<!-- ReportsRouting&#45;&gt;ReportsModule -->
<g id="edge4" class="edge">
<title>ReportsRouting&#45;&gt;ReportsModule</title>
<path fill="none" stroke="#000000" d="M76,-122.1061C76,-141.3391 76,-169 76,-169 76,-169 254.2191,-169 254.2191,-169"/>
<polygon fill="#000000" stroke="#000000" points="254.2191,-172.5001 264.2191,-169 254.219,-165.5001 254.2191,-172.5001"/>
</g>
</g>
</svg>
