<?xml version="1.0" encoding="UTF-8" standalone="no"?>
<!DOCTYPE svg PUBLIC "-//W3C//DTD SVG 1.1//EN"
 "http://www.w3.org/Graphics/SVG/1.1/DTD/svg11.dtd">
<!-- Generated by graphviz version 2.40.1 (20161225.0304)
 -->
<!-- Title: dependencies Pages: 1 -->
<svg width="586pt" height="284pt"
 viewBox="0.00 0.00 586.00 284.00" xmlns="http://www.w3.org/2000/svg" xmlns:xlink="http://www.w3.org/1999/xlink">
<g id="graph0" class="graph" transform="scale(1 1) rotate(0) translate(4 280)">
<title>dependencies</title>
<polygon fill="#ffffff" stroke="transparent" points="-4,4 -4,-280 582,-280 582,4 -4,4"/>
<text text-anchor="start" x="268.0091" y="-42.4" font-family="sans-serif" font-weight="bold" font-size="14.00" fill="#000000">Legend</text>
<polygon fill="#ffffb3" stroke="transparent" points="55,-10 55,-30 75,-30 75,-10 55,-10"/>
<text text-anchor="start" x="78.629" y="-15.4" font-family="sans-serif" font-size="14.00" fill="#000000"> &#160;Declarations</text>
<polygon fill="#8dd3c7" stroke="transparent" points="168,-10 168,-30 188,-30 188,-10 168,-10"/>
<text text-anchor="start" x="191.7251" y="-15.4" font-family="sans-serif" font-size="14.00" fill="#000000"> &#160;Module</text>
<polygon fill="#80b1d3" stroke="transparent" points="254,-10 254,-30 274,-30 274,-10 254,-10"/>
<text text-anchor="start" x="277.7812" y="-15.4" font-family="sans-serif" font-size="14.00" fill="#000000"> &#160;Bootstrap</text>
<polygon fill="#fdb462" stroke="transparent" points="351,-10 351,-30 371,-30 371,-10 351,-10"/>
<text text-anchor="start" x="374.6732" y="-15.4" font-family="sans-serif" font-size="14.00" fill="#000000"> &#160;Providers</text>
<polygon fill="#fb8072" stroke="transparent" points="447,-10 447,-30 467,-30 467,-10 447,-10"/>
<text text-anchor="start" x="470.7258" y="-15.4" font-family="sans-serif" font-size="14.00" fill="#000000"> &#160;Exports</text>
<g id="clust1" class="cluster">
<title>cluster_SharedModule</title>
<polygon fill="none" stroke="#000000" stroke-dasharray="1,5" points="8,-70 8,-268 570,-268 570,-70 8,-70"/>
</g>
<g id="clust2" class="cluster">
<title>cluster_SharedModule_declarations</title>
<polygon fill="none" stroke="#000000" points="156,-78 156,-130 562,-130 562,-78 156,-78"/>
</g>
<g id="clust7" class="cluster">
<title>cluster_SharedModule_exports</title>
<polygon fill="none" stroke="#000000" points="82,-208 82,-260 498,-260 498,-208 82,-208"/>
</g>
<g id="clust9" class="cluster">
<title>cluster_SharedModule_providers</title>
<polygon fill="none" stroke="#000000" points="16,-78 16,-130 148,-130 148,-78 16,-78"/>
</g>
<!-- NavbarComponent -->
<g id="node1" class="node">
<title>NavbarComponent</title>
<polygon fill="#ffffb3" stroke="#000000" points="554.0297,-122 431.9703,-122 431.9703,-86 554.0297,-86 554.0297,-122"/>
<text text-anchor="middle" x="493" y="-99.8" font-family="Times,serif" font-size="14.00" fill="#000000">NavbarComponent</text>
</g>
<!-- SharedModule -->
<g id="node4" class="node">
<title>SharedModule</title>
<polygon fill="#8dd3c7" stroke="#000000" points="334.4231,-187 331.4231,-191 310.4231,-191 307.4231,-187 235.5769,-187 235.5769,-151 334.4231,-151 334.4231,-187"/>
<text text-anchor="middle" x="285" y="-164.8" font-family="Times,serif" font-size="14.00" fill="#000000">SharedModule</text>
</g>
<!-- NavbarComponent&#45;&gt;SharedModule -->
<g id="edge1" class="edge">
<title>NavbarComponent&#45;&gt;SharedModule</title>
<path fill="none" stroke="#000000" d="M460.875,-122.0225C460.875,-139.3734 460.875,-163 460.875,-163 460.875,-163 344.459,-163 344.459,-163"/>
<polygon fill="#000000" stroke="#000000" points="344.4591,-159.5001 334.459,-163 344.459,-166.5001 344.4591,-159.5001"/>
</g>
<!-- FooterComponent -->
<g id="node2" class="node">
<title>FooterComponent</title>
<polygon fill="#ffffb3" stroke="#000000" points="413.8809,-122 296.1191,-122 296.1191,-86 413.8809,-86 413.8809,-122"/>
<text text-anchor="middle" x="355" y="-99.8" font-family="Times,serif" font-size="14.00" fill="#000000">FooterComponent</text>
</g>
<!-- FooterComponent&#45;&gt;SharedModule -->
<g id="edge2" class="edge">
<title>FooterComponent&#45;&gt;SharedModule</title>
<path fill="none" stroke="#000000" d="M315.1354,-122.1061C315.1354,-122.1061 315.1354,-140.991 315.1354,-140.991"/>
<polygon fill="#000000" stroke="#000000" points="311.6354,-140.9909 315.1354,-150.991 318.6354,-140.991 311.6354,-140.9909"/>
</g>
<!-- TableComponent -->
<g id="node3" class="node">
<title>TableComponent</title>
<polygon fill="#ffffb3" stroke="#000000" points="277.705,-122 164.295,-122 164.295,-86 277.705,-86 277.705,-122"/>
<text text-anchor="middle" x="221" y="-99.8" font-family="Times,serif" font-size="14.00" fill="#000000">TableComponent</text>
</g>
<!-- TableComponent&#45;&gt;SharedModule -->
<g id="edge3" class="edge">
<title>TableComponent&#45;&gt;SharedModule</title>
<path fill="none" stroke="#000000" d="M256.6957,-122.1061C256.6957,-122.1061 256.6957,-140.991 256.6957,-140.991"/>
<polygon fill="#000000" stroke="#000000" points="253.1957,-140.9909 256.6957,-150.991 260.1957,-140.991 253.1957,-140.9909"/>
</g>
<!-- NavbarComponent  -->
<g id="node5" class="node">
<title>NavbarComponent </title>
<polygon fill="#fb8072" stroke="#000000" points="490.0288,-252 363.9712,-252 363.9712,-216 490.0288,-216 490.0288,-252"/>
<text text-anchor="middle" x="427" y="-229.8" font-family="Times,serif" font-size="14.00" fill="#000000">NavbarComponent </text>
</g>
<!-- SharedModule&#45;&gt;NavbarComponent  -->
<g id="edge4" class="edge">
<title>SharedModule&#45;&gt;NavbarComponent </title>
<path fill="none" stroke="#000000" stroke-dasharray="5,2" d="M334.2414,-175C361.1127,-175 388.963,-175 388.963,-175 388.963,-175 388.963,-205.9775 388.963,-205.9775"/>
<polygon fill="#000000" stroke="#000000" points="385.4631,-205.9774 388.963,-215.9775 392.4631,-205.9775 385.4631,-205.9774"/>
</g>
<!-- FooterComponent  -->
<g id="node6" class="node">
<title>FooterComponent </title>
<polygon fill="#fb8072" stroke="#000000" points="345.8814,-252 224.1186,-252 224.1186,-216 345.8814,-216 345.8814,-252"/>
<text text-anchor="middle" x="285" y="-229.8" font-family="Times,serif" font-size="14.00" fill="#000000">FooterComponent </text>
</g>
<!-- SharedModule&#45;&gt;FooterComponent  -->
<g id="edge5" class="edge">
<title>SharedModule&#45;&gt;FooterComponent </title>
<path fill="none" stroke="#000000" stroke-dasharray="5,2" d="M285,-187.1061C285,-187.1061 285,-205.991 285,-205.991"/>
<polygon fill="#000000" stroke="#000000" points="281.5001,-205.9909 285,-215.991 288.5001,-205.991 281.5001,-205.9909"/>
</g>
<!-- TableComponent  -->
<g id="node7" class="node">
<title>TableComponent </title>
<polygon fill="#fb8072" stroke="#000000" points="206.2052,-252 89.7948,-252 89.7948,-216 206.2052,-216 206.2052,-252"/>
<text text-anchor="middle" x="148" y="-229.8" font-family="Times,serif" font-size="14.00" fill="#000000">TableComponent </text>
</g>
<!-- SharedModule&#45;&gt;TableComponent  -->
<g id="edge6" class="edge">
<title>SharedModule&#45;&gt;TableComponent </title>
<path fill="none" stroke="#000000" stroke-dasharray="5,2" d="M235.7712,-175C210.6719,-175 185.375,-175 185.375,-175 185.375,-175 185.375,-205.9775 185.375,-205.9775"/>
<polygon fill="#000000" stroke="#000000" points="181.8751,-205.9774 185.375,-215.9775 188.8751,-205.9775 181.8751,-205.9774"/>
</g>
<!-- UserService -->
<g id="node8" class="node">
<title>UserService</title>
<ellipse fill="#fdb462" stroke="#000000" cx="82" cy="-104" rx="58.4415" ry="18"/>
<text text-anchor="middle" x="82" y="-99.8" font-family="Times,serif" font-size="14.00" fill="#000000">UserService</text>
</g>
<!-- UserService&#45;&gt;SharedModule -->
<g id="edge7" class="edge">
<title>UserService&#45;&gt;SharedModule</title>
<path fill="none" stroke="#000000" d="M114.934,-118.8882C114.934,-136.3665 114.934,-163 114.934,-163 114.934,-163 225.3527,-163 225.3527,-163"/>
<polygon fill="#000000" stroke="#000000" points="225.3527,-166.5001 235.3527,-163 225.3527,-159.5001 225.3527,-166.5001"/>
</g>
</g>
</svg>
