<?xml version="1.0" encoding="UTF-8" standalone="no"?>
<!DOCTYPE svg PUBLIC "-//W3C//DTD SVG 1.1//EN"
 "http://www.w3.org/Graphics/SVG/1.1/DTD/svg11.dtd">
<!-- Generated by graphviz version 2.40.1 (20161225.0304)
 -->
<!-- Title: dependencies Pages: 1 -->
<svg width="1066pt" height="284pt"
 viewBox="0.00 0.00 1066.00 284.00" xmlns="http://www.w3.org/2000/svg" xmlns:xlink="http://www.w3.org/1999/xlink">
<g id="graph0" class="graph" transform="scale(1 1) rotate(0) translate(4 280)">
<title>dependencies</title>
<polygon fill="#ffffff" stroke="transparent" points="-4,4 -4,-280 1062,-280 1062,4 -4,4"/>
<text text-anchor="start" x="508.0091" y="-42.4" font-family="sans-serif" font-weight="bold" font-size="14.00" fill="#000000">Legend</text>
<polygon fill="#ffffb3" stroke="transparent" points="295,-10 295,-30 315,-30 315,-10 295,-10"/>
<text text-anchor="start" x="318.629" y="-15.4" font-family="sans-serif" font-size="14.00" fill="#000000"> &#160;Declarations</text>
<polygon fill="#8dd3c7" stroke="transparent" points="408,-10 408,-30 428,-30 428,-10 408,-10"/>
<text text-anchor="start" x="431.7251" y="-15.4" font-family="sans-serif" font-size="14.00" fill="#000000"> &#160;Module</text>
<polygon fill="#80b1d3" stroke="transparent" points="494,-10 494,-30 514,-30 514,-10 494,-10"/>
<text text-anchor="start" x="517.7812" y="-15.4" font-family="sans-serif" font-size="14.00" fill="#000000"> &#160;Bootstrap</text>
<polygon fill="#fdb462" stroke="transparent" points="591,-10 591,-30 611,-30 611,-10 591,-10"/>
<text text-anchor="start" x="614.6732" y="-15.4" font-family="sans-serif" font-size="14.00" fill="#000000"> &#160;Providers</text>
<polygon fill="#fb8072" stroke="transparent" points="687,-10 687,-30 707,-30 707,-10 687,-10"/>
<text text-anchor="start" x="710.7258" y="-15.4" font-family="sans-serif" font-size="14.00" fill="#000000"> &#160;Exports</text>
<g id="clust1" class="cluster">
<title>cluster_SharedModule</title>
<polygon fill="none" stroke="#000000" stroke-dasharray="1,5" points="8,-70 8,-268 1050,-268 1050,-70 8,-70"/>
</g>
<g id="clust2" class="cluster">
<title>cluster_SharedModule_declarations</title>
<polygon fill="none" stroke="#000000" points="156,-78 156,-130 1042,-130 1042,-78 156,-78"/>
</g>
<g id="clust10" class="cluster">
<title>cluster_SharedModule_exports</title>
<polygon fill="none" stroke="#000000" points="76,-208 76,-260 983,-260 983,-208 76,-208"/>
</g>
<g id="clust12" class="cluster">
<title>cluster_SharedModule_providers</title>
<polygon fill="none" stroke="#000000" points="16,-78 16,-130 148,-130 148,-78 16,-78"/>
</g>
<!-- NavbarComponent -->
<g id="node1" class="node">
<title>NavbarComponent</title>
<polygon fill="#ffffb3" stroke="#000000" points="1034.0297,-122 911.9703,-122 911.9703,-86 1034.0297,-86 1034.0297,-122"/>
<text text-anchor="middle" x="973" y="-99.8" font-family="Times,serif" font-size="14.00" fill="#000000">NavbarComponent</text>
</g>
<!-- SharedModule -->
<g id="node7" class="node">
<title>SharedModule</title>
<polygon fill="#8dd3c7" stroke="#000000" points="606.4231,-187 603.4231,-191 582.4231,-191 579.4231,-187 507.5769,-187 507.5769,-151 606.4231,-151 606.4231,-187"/>
<text text-anchor="middle" x="557" y="-164.8" font-family="Times,serif" font-size="14.00" fill="#000000">SharedModule</text>
</g>
<!-- NavbarComponent&#45;&gt;SharedModule -->
<g id="edge1" class="edge">
<title>NavbarComponent&#45;&gt;SharedModule</title>
<path fill="none" stroke="#000000" d="M943.375,-122.1061C943.375,-141.3391 943.375,-169 943.375,-169 943.375,-169 616.3271,-169 616.3271,-169"/>
<polygon fill="#000000" stroke="#000000" points="616.3271,-165.5001 606.3271,-169 616.3271,-172.5001 616.3271,-165.5001"/>
</g>
<!-- FooterComponent -->
<g id="node2" class="node">
<title>FooterComponent</title>
<polygon fill="#ffffb3" stroke="#000000" points="893.8809,-122 776.1191,-122 776.1191,-86 893.8809,-86 893.8809,-122"/>
<text text-anchor="middle" x="835" y="-99.8" font-family="Times,serif" font-size="14.00" fill="#000000">FooterComponent</text>
</g>
<!-- FooterComponent&#45;&gt;SharedModule -->
<g id="edge2" class="edge">
<title>FooterComponent&#45;&gt;SharedModule</title>
<path fill="none" stroke="#000000" d="M803.375,-122.0225C803.375,-139.3734 803.375,-163 803.375,-163 803.375,-163 616.2655,-163 616.2655,-163"/>
<polygon fill="#000000" stroke="#000000" points="616.2655,-159.5001 606.2655,-163 616.2655,-166.5001 616.2655,-159.5001"/>
</g>
<!-- TableComponent -->
<g id="node3" class="node">
<title>TableComponent</title>
<polygon fill="#ffffb3" stroke="#000000" points="757.705,-122 644.295,-122 644.295,-86 757.705,-86 757.705,-122"/>
<text text-anchor="middle" x="701" y="-99.8" font-family="Times,serif" font-size="14.00" fill="#000000">TableComponent</text>
</g>
<!-- TableComponent&#45;&gt;SharedModule -->
<g id="edge3" class="edge">
<title>TableComponent&#45;&gt;SharedModule</title>
<path fill="none" stroke="#000000" d="M667.875,-122.2396C667.875,-137.5706 667.875,-157 667.875,-157 667.875,-157 616.2771,-157 616.2771,-157"/>
<polygon fill="#000000" stroke="#000000" points="616.2771,-153.5001 606.2771,-157 616.277,-160.5001 616.2771,-153.5001"/>
</g>
<!-- IncrementComponent -->
<g id="node4" class="node">
<title>IncrementComponent</title>
<polygon fill="#ffffb3" stroke="#000000" points="626.0786,-122 487.9214,-122 487.9214,-86 626.0786,-86 626.0786,-122"/>
<text text-anchor="middle" x="557" y="-99.8" font-family="Times,serif" font-size="14.00" fill="#000000">IncrementComponent</text>
</g>
<!-- IncrementComponent&#45;&gt;SharedModule -->
<g id="edge4" class="edge">
<title>IncrementComponent&#45;&gt;SharedModule</title>
<path fill="none" stroke="#000000" d="M557,-122.1061C557,-122.1061 557,-140.991 557,-140.991"/>
<polygon fill="#000000" stroke="#000000" points="553.5001,-140.9909 557,-150.991 560.5001,-140.991 553.5001,-140.9909"/>
</g>
<!-- TagControlComponent -->
<g id="node5" class="node">
<title>TagControlComponent</title>
<polygon fill="#ffffb3" stroke="#000000" points="469.8781,-122 324.1219,-122 324.1219,-86 469.8781,-86 469.8781,-122"/>
<text text-anchor="middle" x="397" y="-99.8" font-family="Times,serif" font-size="14.00" fill="#000000">TagControlComponent</text>
</g>
<!-- TagControlComponent&#45;&gt;SharedModule -->
<g id="edge5" class="edge">
<title>TagControlComponent&#45;&gt;SharedModule</title>
<path fill="none" stroke="#000000" d="M442.5749,-122.2396C442.5749,-137.5706 442.5749,-157 442.5749,-157 442.5749,-157 497.477,-157 497.477,-157"/>
<polygon fill="#000000" stroke="#000000" points="497.477,-160.5001 507.477,-157 497.4769,-153.5001 497.477,-160.5001"/>
</g>
<!-- TagValidatorDirective -->
<g id="node6" class="node">
<title>TagValidatorDirective</title>
<polygon fill="#ffffb3" stroke="#000000" points="306.2185,-122 163.7815,-122 163.7815,-86 306.2185,-86 306.2185,-122"/>
<text text-anchor="middle" x="235" y="-99.8" font-family="Times,serif" font-size="14.00" fill="#000000">TagValidatorDirective</text>
</g>
<!-- TagValidatorDirective&#45;&gt;SharedModule -->
<g id="edge6" class="edge">
<title>TagValidatorDirective&#45;&gt;SharedModule</title>
<path fill="none" stroke="#000000" d="M277.3351,-122.0225C277.3351,-139.3734 277.3351,-163 277.3351,-163 277.3351,-163 497.6453,-163 497.6453,-163"/>
<polygon fill="#000000" stroke="#000000" points="497.6453,-166.5001 507.6453,-163 497.6453,-159.5001 497.6453,-166.5001"/>
</g>
<!-- NavbarComponent  -->
<g id="node8" class="node">
<title>NavbarComponent </title>
<polygon fill="#fb8072" stroke="#000000" points="975.0288,-252 848.9712,-252 848.9712,-216 975.0288,-216 975.0288,-252"/>
<text text-anchor="middle" x="912" y="-229.8" font-family="Times,serif" font-size="14.00" fill="#000000">NavbarComponent </text>
</g>
<!-- SharedModule&#45;&gt;NavbarComponent  -->
<g id="edge7" class="edge">
<title>SharedModule&#45;&gt;NavbarComponent </title>
<path fill="none" stroke="#000000" stroke-dasharray="5,2" d="M606.4808,-175C695.0379,-175 871.463,-175 871.463,-175 871.463,-175 871.463,-205.9775 871.463,-205.9775"/>
<polygon fill="#000000" stroke="#000000" points="867.9631,-205.9774 871.463,-215.9775 874.9631,-205.9775 867.9631,-205.9774"/>
</g>
<!-- FooterComponent  -->
<g id="node9" class="node">
<title>FooterComponent </title>
<polygon fill="#fb8072" stroke="#000000" points="830.8814,-252 709.1186,-252 709.1186,-216 830.8814,-216 830.8814,-252"/>
<text text-anchor="middle" x="770" y="-229.8" font-family="Times,serif" font-size="14.00" fill="#000000">FooterComponent </text>
</g>
<!-- SharedModule&#45;&gt;FooterComponent  -->
<g id="edge8" class="edge">
<title>SharedModule&#45;&gt;FooterComponent </title>
<path fill="none" stroke="#000000" stroke-dasharray="5,2" d="M606.6224,-181C658.8137,-181 733.456,-181 733.456,-181 733.456,-181 733.456,-205.7604 733.456,-205.7604"/>
<polygon fill="#000000" stroke="#000000" points="729.9561,-205.7604 733.456,-215.7604 736.9561,-205.7604 729.9561,-205.7604"/>
</g>
<!-- TableComponent  -->
<g id="node10" class="node">
<title>TableComponent </title>
<polygon fill="#fb8072" stroke="#000000" points="691.2052,-252 574.7948,-252 574.7948,-216 691.2052,-216 691.2052,-252"/>
<text text-anchor="middle" x="633" y="-229.8" font-family="Times,serif" font-size="14.00" fill="#000000">TableComponent </text>
</g>
<!-- SharedModule&#45;&gt;TableComponent  -->
<g id="edge9" class="edge">
<title>SharedModule&#45;&gt;TableComponent </title>
<path fill="none" stroke="#000000" stroke-dasharray="5,2" d="M590.4294,-187.1061C590.4294,-187.1061 590.4294,-205.991 590.4294,-205.991"/>
<polygon fill="#000000" stroke="#000000" points="586.9294,-205.9909 590.4294,-215.991 593.9294,-205.991 586.9294,-205.9909"/>
</g>
<!-- IncrementComponent  -->
<g id="node11" class="node">
<title>IncrementComponent </title>
<polygon fill="#fb8072" stroke="#000000" points="556.5792,-252 415.4208,-252 415.4208,-216 556.5792,-216 556.5792,-252"/>
<text text-anchor="middle" x="486" y="-229.8" font-family="Times,serif" font-size="14.00" fill="#000000">IncrementComponent </text>
</g>
<!-- SharedModule&#45;&gt;IncrementComponent  -->
<g id="edge10" class="edge">
<title>SharedModule&#45;&gt;IncrementComponent </title>
<path fill="none" stroke="#000000" stroke-dasharray="5,2" d="M532.2891,-187.1061C532.2891,-187.1061 532.2891,-205.991 532.2891,-205.991"/>
<polygon fill="#000000" stroke="#000000" points="528.7892,-205.9909 532.2891,-215.991 535.7892,-205.991 528.7892,-205.9909"/>
</g>
<!-- TagControlComponent  -->
<g id="node12" class="node">
<title>TagControlComponent </title>
<polygon fill="#fb8072" stroke="#000000" points="397.8785,-252 248.1215,-252 248.1215,-216 397.8785,-216 397.8785,-252"/>
<text text-anchor="middle" x="323" y="-229.8" font-family="Times,serif" font-size="14.00" fill="#000000">TagControlComponent </text>
</g>
<!-- SharedModule&#45;&gt;TagControlComponent  -->
<g id="edge11" class="edge">
<title>SharedModule&#45;&gt;TagControlComponent </title>
<path fill="none" stroke="#000000" stroke-dasharray="5,2" d="M507.7625,-181C449.6665,-181 360.875,-181 360.875,-181 360.875,-181 360.875,-205.7604 360.875,-205.7604"/>
<polygon fill="#000000" stroke="#000000" points="357.3751,-205.7604 360.875,-215.7604 364.3751,-205.7604 357.3751,-205.7604"/>
</g>
<!-- TagValidatorDirective  -->
<g id="node13" class="node">
<title>TagValidatorDirective </title>
<polygon fill="#fb8072" stroke="#000000" points="230.2184,-252 83.7816,-252 83.7816,-216 230.2184,-216 230.2184,-252"/>
<text text-anchor="middle" x="157" y="-229.8" font-family="Times,serif" font-size="14.00" fill="#000000">TagValidatorDirective </text>
</g>
<!-- SharedModule&#45;&gt;TagValidatorDirective  -->
<g id="edge12" class="edge">
<title>SharedModule&#45;&gt;TagValidatorDirective </title>
<path fill="none" stroke="#000000" stroke-dasharray="5,2" d="M507.6813,-175C409.0521,-175 196.875,-175 196.875,-175 196.875,-175 196.875,-205.9775 196.875,-205.9775"/>
<polygon fill="#000000" stroke="#000000" points="193.3751,-205.9774 196.875,-215.9775 200.3751,-205.9775 193.3751,-205.9774"/>
</g>
<!-- UserService -->
<g id="node14" class="node">
<title>UserService</title>
<ellipse fill="#fdb462" stroke="#000000" cx="82" cy="-104" rx="58.4415" ry="18"/>
<text text-anchor="middle" x="82" y="-99.8" font-family="Times,serif" font-size="14.00" fill="#000000">UserService</text>
</g>
<!-- UserService&#45;&gt;SharedModule -->
<g id="edge13" class="edge">
<title>UserService&#45;&gt;SharedModule</title>
<path fill="none" stroke="#000000" d="M112.0556,-119.7347C112.0556,-138.9716 112.0556,-169 112.0556,-169 112.0556,-169 497.6831,-169 497.6831,-169"/>
<polygon fill="#000000" stroke="#000000" points="497.6832,-172.5001 507.6831,-169 497.6831,-165.5001 497.6832,-172.5001"/>
</g>
</g>
</svg>
